<?xml version="1.0" encoding="utf-8"?>
<!-- Generator: Adobe Illustrator 25.0.1, SVG Export Plug-In . SVG Version: 6.00 Build 0)  -->
<svg version="1.1" id="Layer_1" xmlns="http://www.w3.org/2000/svg" xmlns:xlink="http://www.w3.org/1999/xlink" x="0px" y="0px"
	 viewBox="0 0 132 132" style="enable-background:new 0 0 132 132;" xml:space="preserve">
<style type="text/css">
	.st0{fill-rule:evenodd;clip-rule:evenodd;fill:#A3CF3A;}
	.st1{fill-rule:evenodd;clip-rule:evenodd;fill:#A3CE37;}
	.st2{fill-rule:evenodd;clip-rule:evenodd;fill:#A4CE31;}
	.st3{fill-rule:evenodd;clip-rule:evenodd;fill:#ECB2BE;}
	.st4{fill-rule:evenodd;clip-rule:evenodd;fill:#F2ADCB;}
	.st5{fill-rule:evenodd;clip-rule:evenodd;fill:#F57105;}
</style>
<path class="st0" d="M69.8,25.9c-5.6-2.9-12.7,3.9-19,5.3c2.6-10.9,16.7-13.3,32.7-9.3C71.4,36.3,61.9,41.6,55.7,35.4
	C57.5,31.6,61.8,28.1,69.8,25.9z"/>
<path class="st1" d="M41.3,28.2c2.6-0.1,4.8,2,4.9,4.7c0,0,0,0,0,0c-0.2,2.7-2.5,4.8-5.2,4.6c-2.5-0.1-4.5-2.1-4.6-4.6
	C36.5,30.3,38.7,28.2,41.3,28.2C41.3,28.2,41.3,28.2,41.3,28.2z"/>
<path class="st2" d="M95.2,27.9c22,6.5,35.1,27.6,28.8,55.9c-4.2,12.9-11.7,21.6-25,27.2c-9.2,3.9-13.8,4.4-23.7,2.5
	c-28-5.3-47.6-29.5-38.6-64.4c-2.8,35.4,10.1,52.4,30.7,58c10.2,2.8,18,3.2,27.8-0.8C129.3,92.5,134.6,45.2,95.2,27.9L95.2,27.9z"/>
<path class="st3" d="M59.4,28.8C49.2,33.9,42.7,40,39,46.7c-4.5-5.5-9.6-9.8-13.5-11.1c3.2,3.2,8.8,5.5,11.2,13.7
	c-4.9,9.2-5.7,20.5-4.2,30.5c5.4,25.1,32.2,39.7,57.4,34.5c-25-0.9-42.5-10.2-51.3-29.8C29,62.9,41.9,41.1,59.4,28.8z"/>
<path class="st4" d="M33.7,38.2c-5.1-3-9.9-5.4-14.1-5.8l8.7,6.7c1.1,0.9,1.6,0.8,0.2,1.6c-4.4,3-9.7,0-15.6-6.3l-5.6-7.3
	c6.8-0.3,13.5,0.3,19.7,3.4C29.9,31.9,32,34.6,33.7,38.2L33.7,38.2z"/>
<path class="st5" d="M58.4,79.1h16.2c5-1.4,7.9-4.3,8.9-8.7c0.7-3.5-0.2-7.1-2.5-9.9l-6.6,14.2l-15.8,0.1l-0.1-24.1l19.1,0.2
	l5.9,3.6c9.1,6.8,9.8,21.4-3.5,28.6c-3.7,2-4.5,1.9-8.5,1.9l-6.6,0.1v13h-6.3L58.4,79.1z M64.8,69.1h5.5l5.1-12.6l-10.8-0.2
	L64.8,69.1z"/>
<polygon class="st5" points="88.3,84.5 88.3,79.5 98.8,79.5 85.8,47.1 80.9,60.5 75.5,56.5 83.2,40.6 88.9,40.6 107.8,84.6 
	88.3,84.5 "/>
</svg>
