<?xml version="1.0" encoding="utf-8"?>
<!-- Generator: Adobe Illustrator 25.0.1, SVG Export Plug-In . SVG Version: 6.00 Build 0)  -->
<svg version="1.1" id="Layer_1" xmlns="http://www.w3.org/2000/svg" xmlns:xlink="http://www.w3.org/1999/xlink" x="0px" y="0px"
	 viewBox="0 0 569.1 122.3" style="enable-background:new 0 0 569.1 122.3;" xml:space="preserve">
<style type="text/css">
	.st0{fill-rule:evenodd;clip-rule:evenodd;fill:#A3CF3A;}
	.st1{fill-rule:evenodd;clip-rule:evenodd;fill:#A3CE37;}
	.st2{fill-rule:evenodd;clip-rule:evenodd;fill:#A4CE31;}
	.st3{fill-rule:evenodd;clip-rule:evenodd;fill:#ECB2BE;}
	.st4{fill-rule:evenodd;clip-rule:evenodd;fill:#F2ADCB;}
	.st5{fill-rule:evenodd;clip-rule:evenodd;fill:#F57105;}
	.st6{fill:#F57105;}
	.st7{font-family:'MyriadPro-Semibold';}
	.st8{font-size:36.6149px;}
</style>
<path class="st0" d="M80.2,7.5c-7.2-3.7-16.3,5-24.4,6.8c3.3-14.1,21.4-17.1,42.1-12C82.3,20.8,70.1,27.6,62.1,19.6
	C64.5,14.8,69.9,10.3,80.2,7.5z"/>
<path class="st1" d="M43.6,10.5c3.4-0.1,6.2,2.6,6.3,6c0,0,0,0,0,0c-0.2,3.5-3.2,6.1-6.7,5.9c-3.2-0.2-5.8-2.7-5.9-5.9
	C37.4,13.1,40.2,10.4,43.6,10.5C43.6,10.5,43.6,10.5,43.6,10.5z"/>
<path class="st2" d="M112.9,10.1c28.3,8.3,45.1,35.5,37,71.9c-5.4,16.6-15.1,27.8-32.2,35c-11.8,5-17.7,5.6-30.5,3.2
	c-36-6.9-61.1-37.9-49.7-82.8c-3.6,45.5,13,67.3,39.4,74.6c13.1,3.6,23.1,4.1,35.7-1C156.7,93,163.5,32.3,112.9,10.1L112.9,10.1z"/>
<path class="st3" d="M66.9,11.2c-13.1,6.6-21.5,14.3-26.3,22.9c-5.8-7.1-12.3-12.6-17.3-14.2C27.3,24,34.6,27,37.7,37.4
	c-6.3,11.8-7.4,26.4-5.4,39.2c7,32.3,41.4,51,73.8,44.3c-32.1-1.2-54.7-13.1-66-38.3C27.7,55.1,44.4,27,66.9,11.2z"/>
<path class="st4" d="M33.8,23.3c-6.5-3.9-12.8-7-18.1-7.5l11.2,8.7c1.5,1.1,2,1,0.3,2.1c-5.7,3.9-12.5,0-20-8.1L0,9.1
	c8.8-0.4,17.4,0.4,25.3,4.3C28.9,15.1,31.6,18.7,33.8,23.3L33.8,23.3z"/>
<path class="st5" d="M65.5,75.9h20.8c6.4-1.8,10.2-5.5,11.4-11.2c0.9-4.5-0.3-9.2-3.2-12.7L86,70.2l-20.3,0.1l-0.2-30.9l24.6,0.2
	l7.6,4.6c11.7,8.7,12.5,27.5-4.5,36.7c-4.8,2.6-5.8,2.4-10.9,2.5l-8.5,0.2v16.7h-8.1L65.5,75.9z M73.8,63h7.1l6.6-16.2l-13.8-0.2
	L73.8,63z"/>
<polygon class="st5" points="104,82.8 104,76.3 117.5,76.3 100.8,34.6 94.5,52 87.5,46.7 97.5,26.3 104.8,26.3 129.1,82.9 104,82.8 
	"/>
<path class="st6" d="M177.4,30.7h-10.2c-1.2,0-1.6,0.4-1.9,1.5l-4.1,22.9c-0.2,1.1,0.1,1.5,1.3,1.5h4.2c1.2,0,1.6-0.4,1.8-1.5
	l1.1-6.2h4.5c5.8,0,9.9-2.7,11-8.5C186.3,34.6,183.2,30.7,177.4,30.7L177.4,30.7z M174.5,42.4h-3.6l1-5.4h3.6
	c1.1-0.2,2.2,0.6,2.4,1.8c0,0.3,0,0.6-0.1,0.9C177.5,41.4,176.1,42.5,174.5,42.4L174.5,42.4z"/>
<path class="st6" d="M201.6,30.7h-10.5c-1.2,0-1.6,0.4-1.9,1.5l-4.1,22.9c-0.2,1.1,0.1,1.5,1.3,1.5h4.2c1.2,0,1.6-0.4,1.8-1.5
	l1.3-7.1h1c1.6,0,1.9,0.6,2.3,1.9l1.5,5c0.4,1.3,1.1,1.8,3.1,1.8h4c0.7,0.1,1.3-0.3,1.4-1c0-0.3,0-0.6-0.1-0.8l-2.2-6.2
	c-0.2-0.5-0.4-1.1-0.7-1.6c2.8-1.4,4.8-4.1,5.3-7.2C210.3,34.1,207.3,30.7,201.6,30.7L201.6,30.7z M201.6,39.4
	c-0.2,1.4-1.4,2.5-2.8,2.4h-4l0.9-4.8h4C201.3,37.1,202,38,201.6,39.4L201.6,39.4z"/>
<path class="st6" d="M233,55.1l-4.4-23.2c-0.2-1-0.7-1.2-1.7-1.2h-4.2c-0.9-0.1-1.8,0.4-2.2,1.3l-12.6,23.1c-0.6,1-0.4,1.5,0.7,1.5
	h4.1c1.8,0,2.4-0.4,2.9-1.5l1.3-2.6h8l0.4,2.6c0.1,1.1,0.6,1.5,2.5,1.5h3.8C232.8,56.6,233.2,56.1,233,55.1L233,55.1z M223.7,42.4
	l0.6,4.3h-4.6l2.1-4.3c0.8-1.6,1.3-3.3,1.7-5.1h0.3C223.6,39,223.5,40.7,223.7,42.4z"/>
<path class="st6" d="M254.6,30.7h-18.3c-1.2,0-1.6,0.4-1.8,1.5l-0.6,3.3c-0.2,1.2,0.1,1.6,1.3,1.6h5.5l-3.2,18
	c-0.2,1.1,0.1,1.5,1.3,1.5h4.2c1.2,0,1.6-0.4,1.9-1.5l3.2-18h5.5c1.2,0,1.7-0.4,1.8-1.6l0.6-3.3C256.1,31.1,255.8,30.7,254.6,30.7
	L254.6,30.7z"/>
<path class="st6" d="M280.4,30.7h-4.3c-1.8,0-2.4,0.1-3.2,1.3l-5.4,7.5l-2.6-7.5c-0.5-1.3-1-1.3-2.8-1.3h-4.3c-1.1,0-1.4,0.7-1,1.5
	l5.9,14.3l-1.5,8.5c-0.2,1.1,0.1,1.5,1.3,1.5h4.2c0.9,0.1,1.7-0.4,1.8-1.3c0-0.1,0-0.2,0-0.2l1.5-8.5l11.1-14.3
	C281.6,31.4,281.5,30.7,280.4,30.7z"/>
<path class="st6" d="M298.6,55.1l-4.4-23.2c-0.2-1-0.7-1.2-1.7-1.2h-4.2c-0.9-0.1-1.8,0.4-2.1,1.3l-12.6,23.1
	c-0.5,1-0.4,1.5,0.7,1.5h4.1c1.8,0,2.4-0.4,3-1.5l1.3-2.6h8l0.4,2.6c0.1,1.1,0.6,1.5,2.5,1.5h3.8C298.3,56.6,298.7,56.1,298.6,55.1
	L298.6,55.1z M289.3,42.4l0.6,4.3h-4.6l2.1-4.3c0.7-1.6,1.3-3.3,1.6-5.1h0.3C289.1,39,289.1,40.7,289.3,42.4L289.3,42.4z"/>
<path class="st6" d="M322.6,54.8l-3.2-9.1c-0.3-1.1-1-2.1-1.9-2.7l8.8-10.7c0.7-0.9,0.5-1.6-0.6-1.6h-4.3c-1.9,0-2.2,0.2-3.2,1.3
	l-6.8,8.3h-0.8l1.5-8.1c0.2-1.1-0.1-1.5-1.3-1.5h-4.2c-1.2,0-1.6,0.4-1.9,1.5l-4.1,22.9c-0.2,1.1,0.1,1.5,1.3,1.5h4.2
	c1.2,0,1.6-0.4,1.8-1.5l1.5-8.4h0.6c1.4,0,1.8,0.7,2.2,1.8l2.1,6.5c0.4,1.3,1,1.5,3,1.5h4c0.7,0.1,1.3-0.3,1.4-1
	C322.8,55.3,322.7,55.1,322.6,54.8L322.6,54.8z"/>
<path class="st6" d="M326.5,37.7c-1.2,7.1,4.5,8.5,8.7,9c2.4,0.3,4.2,0.7,4,2.2c-0.3,1.6-1.9,2.1-4.4,2.1c-2.1,0-3.4-0.7-3.8-1.9
	c-0.4-1.1-0.9-1.2-2-0.8l-3.7,1.2c-1.1,0.4-1.5,0.9-1.4,2c0.7,3.7,4.6,5.7,10.1,5.7c6.8,0,11.5-2.3,12.5-7.7
	c1.2-6.7-4.1-8.6-8.2-9.2c-2.7-0.3-4.7-0.7-4.5-2.2c0.2-1.3,1.3-1.9,3.8-1.9c1.7,0,2.9,0.5,3.4,1.9c0.4,1.1,0.8,1.2,1.9,0.8l3.7-1.4
	c1.2-0.5,1.5-0.8,1.1-1.9c-1.1-3.4-3.7-5.4-9.1-5.4C331.6,30.1,327.5,32.8,326.5,37.7L326.5,37.7z"/>
<path class="st6" d="M372.6,30.6h-4.2c-1.1,0-1.6,0.4-1.9,1.6l-1.4,8.1h-7.1l1.4-8.1c0.2-1.2-0.1-1.6-1.3-1.6h-4.2
	c-1.2,0-1.6,0.4-1.9,1.6l-4,22.9c-0.2,1.1,0.1,1.5,1.3,1.5h4.2c1.2,0,1.7-0.4,1.9-1.5l1.5-8.4h7.1l-1.5,8.4
	c-0.2,1.1,0.1,1.5,1.3,1.5h4.2c1.2,0,1.6-0.4,1.9-1.5l4.1-22.9C374.1,31,373.8,30.6,372.6,30.6L372.6,30.6z"/>
<path class="st6" d="M402.9,54.8l-4.4-23.2c-0.2-1-0.7-1.2-1.7-1.2h-4.2c-0.9-0.1-1.8,0.4-2.1,1.3l-12.6,23.2
	c-0.5,1-0.4,1.5,0.7,1.5h4.1c1.9,0,2.4-0.4,3-1.5l1.3-2.6h8l0.4,2.6c0.1,1.1,0.6,1.5,2.5,1.5h3.8C402.7,56.3,403.1,55.8,402.9,54.8
	L402.9,54.8z M393.6,42.2l0.6,4.3h-4.6l2.1-4.3c0.8-1.6,1.3-3.3,1.7-5.1h0.3C393.5,38.7,393.4,40.5,393.6,42.2L393.6,42.2z"/>
<path class="st6" d="M427.1,30.4h-4.3c-1.8,0-2.4,0.1-3.2,1.3l-5.4,7.4l-2.6-7.4c-0.5-1.3-1-1.3-2.8-1.3h-4.3c-1.1,0-1.4,0.7-1,1.5
	l5.9,14.4l-1.5,8.5c-0.2,1.1,0.1,1.5,1.3,1.5h4.2c0.9,0.1,1.7-0.5,1.8-1.3c0-0.1,0-0.1,0-0.2l1.5-8.5l11.1-14.4
	C428.2,31.1,428.2,30.4,427.1,30.4L427.1,30.4z"/>
<path class="st6" d="M434,47.1l2.7-15.2c0.2-1.1-0.1-1.5-1.3-1.5h-4.1c-0.9-0.2-1.7,0.4-1.8,1.3c0,0.1,0,0.2,0,0.3l-2.5,14.3
	c-1.1,6.1,2.1,10.7,9.4,10.7s11.5-3.4,12.7-9.5l2.8-15.4c0.2-1.1-0.1-1.5-1.3-1.5h-4.2c-0.8-0.1-1.6,0.4-1.8,1.3c0,0.1,0,0.2,0,0.3
	l-2.7,15.2c-0.4,2.2-1.9,3.4-4.4,3.4S433.7,49.3,434,47.1L434,47.1z"/>
<path class="st6" d="M467.6,30.4h-10.5c-0.9-0.2-1.7,0.4-1.8,1.3c0,0.1,0,0.2,0,0.3l-4.1,22.9c-0.2,1.1,0.1,1.5,1.3,1.5h4.2
	c1.2,0,1.6-0.4,1.8-1.5l1.3-7.1h1c1.6,0,1.9,0.6,2.3,1.9l1.5,5c0.4,1.3,1.1,1.8,3.1,1.8h4c0.7,0.1,1.3-0.3,1.4-1
	c0-0.3,0-0.6-0.1-0.8l-2.2-6.2c-0.2-0.5-0.4-1.1-0.7-1.6c2.8-1.4,4.8-4.1,5.3-7.2C476.3,33.8,473.3,30.4,467.6,30.4L467.6,30.4z
	 M467.6,39.2c-0.2,1.4-1.4,2.5-2.8,2.5h-4l0.9-4.8h4C467.2,36.8,467.9,37.7,467.6,39.2L467.6,39.2z"/>
<path class="st6" d="M501,30.4h-4.3c-1.8,0-2.4,0.4-2.9,1.5l-5.8,12.5c-0.7,1.5-1.2,3.1-1.5,4.7h-0.3c0.1-1.6,0.1-3.1,0-4.7
	l-1.3-12.5c-0.1-1.1-0.6-1.5-2.4-1.5h-4.1c-1.1,0-1.5,0.5-1.3,1.5l4,23.2c0.2,1,0.6,1.2,1.7,1.2h4.7c0.9,0.1,1.8-0.4,2.1-1.3
	l12.3-23.2C502.3,30.9,502.2,30.4,501,30.4z"/>
<path class="st6" d="M521.1,30.4h-15.5c-1.2,0-1.6,0.4-1.8,1.5l-4.1,22.9c-0.2,1.1,0.1,1.5,1.3,1.5h15.8c1.2,0,1.7-0.4,1.8-1.5
	l0.6-3.3c0.2-1.2-0.1-1.5-1.3-1.5h-10.1l0.6-3.5h7.8c1.2,0,1.6-0.4,1.8-1.6l0.6-3.3c0.2-1.1-0.1-1.5-1.3-1.5h-7.8l0.6-3.2h9.8
	c1.2,0,1.6-0.4,1.8-1.6l0.6-3.3C522.6,30.8,522.3,30.4,521.1,30.4L521.1,30.4z"/>
<path class="st6" d="M536.3,30.4h-9c-1.2,0-1.6,0.4-1.8,1.5l-4.1,22.9c-0.2,1.1,0.1,1.5,1.3,1.5h9.1c7.3,0,11.8-3.4,13-9.7l1-5.5
	C547,34.8,543.7,30.4,536.3,30.4L536.3,30.4z M538.6,40.7l-0.9,5.2c-0.5,2.6-2,3.9-5,3.9h-3l2.4-13.1h3
	C538,36.8,539.1,38.1,538.6,40.7L538.6,40.7z"/>
<path class="st6" d="M569,54.8l-4.4-23.2c-0.2-1-0.7-1.2-1.7-1.2h-4.2c-0.9-0.1-1.8,0.4-2.1,1.3L544,54.8c-0.6,1-0.4,1.5,0.7,1.5
	h4.1c1.8,0,2.4-0.4,3-1.5l1.2-2.6h8l0.4,2.6c0.1,1.1,0.6,1.5,2.5,1.5h3.8C568.8,56.3,569.2,55.8,569,54.8L569,54.8z M559.7,42.2
	l0.6,4.3h-4.6l2.1-4.3c0.8-1.6,1.3-3.3,1.7-5.1h0.3C559.6,38.7,559.5,40.5,559.7,42.2z"/>
<text transform="matrix(1 0 0 1 224.29 94.8457)" class="st7 st8">Let’s learn logically</text>
</svg>
